<svg xmlns="http://www.w3.org/2000/svg" viewBox="-100 -100 200 200">
<defs>
  <radialGradient id="pp" cx="0" cy="-30" r="55">
    <stop offset="0%" stop-color="#a76dd6"/>
    <stop offset="60%" stop-color="#5b2c87"/>
    <stop offset="100%" stop-color="#2f1654"/>
  </radialGradient>
  <radialGradient id="pc" cx="0" cy="0" r="22">
    <stop offset="0%" stop-color="#c89aef"/>
    <stop offset="100%" stop-color="#5b2c87"/>
  </radialGradient>
  <filter id="psf"><feGaussianBlur stdDeviation="0.6"/></filter>
</defs>
<g filter="url(#psf)"><g transform="rotate(0.0)"><ellipse cx="0" cy="-60" rx="22" ry="42" fill="url(#pp)" stroke="#2f1654" stroke-width="0.6" opacity="0.95"/><path d="M0 -95 Q-4 -75 0 -55 Q4 -75 0 -95Z" fill="#fff" opacity="0.13"/></g><g transform="rotate(25.714285714285715)"><ellipse cx="0" cy="-60" rx="22" ry="42" fill="url(#pp)" stroke="#2f1654" stroke-width="0.6" opacity="0.95"/><path d="M0 -95 Q-4 -75 0 -55 Q4 -75 0 -95Z" fill="#fff" opacity="0.13"/></g><g transform="rotate(51.42857142857143)"><ellipse cx="0" cy="-60" rx="22" ry="42" fill="url(#pp)" stroke="#2f1654" stroke-width="0.6" opacity="0.95"/><path d="M0 -95 Q-4 -75 0 -55 Q4 -75 0 -95Z" fill="#fff" opacity="0.13"/></g><g transform="rotate(77.14285714285714)"><ellipse cx="0" cy="-60" rx="22" ry="42" fill="url(#pp)" stroke="#2f1654" stroke-width="0.6" opacity="0.95"/><path d="M0 -95 Q-4 -75 0 -55 Q4 -75 0 -95Z" fill="#fff" opacity="0.13"/></g><g transform="rotate(102.85714285714286)"><ellipse cx="0" cy="-60" rx="22" ry="42" fill="url(#pp)" stroke="#2f1654" stroke-width="0.6" opacity="0.95"/><path d="M0 -95 Q-4 -75 0 -55 Q4 -75 0 -95Z" fill="#fff" opacity="0.13"/></g><g transform="rotate(128.57142857142858)"><ellipse cx="0" cy="-60" rx="22" ry="42" fill="url(#pp)" stroke="#2f1654" stroke-width="0.6" opacity="0.95"/><path d="M0 -95 Q-4 -75 0 -55 Q4 -75 0 -95Z" fill="#fff" opacity="0.13"/></g><g transform="rotate(154.28571428571428)"><ellipse cx="0" cy="-60" rx="22" ry="42" fill="url(#pp)" stroke="#2f1654" stroke-width="0.6" opacity="0.95"/><path d="M0 -95 Q-4 -75 0 -55 Q4 -75 0 -95Z" fill="#fff" opacity="0.13"/></g><g transform="rotate(180.0)"><ellipse cx="0" cy="-60" rx="22" ry="42" fill="url(#pp)" stroke="#2f1654" stroke-width="0.6" opacity="0.95"/><path d="M0 -95 Q-4 -75 0 -55 Q4 -75 0 -95Z" fill="#fff" opacity="0.13"/></g><g transform="rotate(205.71428571428572)"><ellipse cx="0" cy="-60" rx="22" ry="42" fill="url(#pp)" stroke="#2f1654" stroke-width="0.6" opacity="0.95"/><path d="M0 -95 Q-4 -75 0 -55 Q4 -75 0 -95Z" fill="#fff" opacity="0.13"/></g><g transform="rotate(231.42857142857142)"><ellipse cx="0" cy="-60" rx="22" ry="42" fill="url(#pp)" stroke="#2f1654" stroke-width="0.6" opacity="0.95"/><path d="M0 -95 Q-4 -75 0 -55 Q4 -75 0 -95Z" fill="#fff" opacity="0.13"/></g><g transform="rotate(257.14285714285717)"><ellipse cx="0" cy="-60" rx="22" ry="42" fill="url(#pp)" stroke="#2f1654" stroke-width="0.6" opacity="0.95"/><path d="M0 -95 Q-4 -75 0 -55 Q4 -75 0 -95Z" fill="#fff" opacity="0.13"/></g><g transform="rotate(282.85714285714283)"><ellipse cx="0" cy="-60" rx="22" ry="42" fill="url(#pp)" stroke="#2f1654" stroke-width="0.6" opacity="0.95"/><path d="M0 -95 Q-4 -75 0 -55 Q4 -75 0 -95Z" fill="#fff" opacity="0.13"/></g><g transform="rotate(308.57142857142856)"><ellipse cx="0" cy="-60" rx="22" ry="42" fill="url(#pp)" stroke="#2f1654" stroke-width="0.6" opacity="0.95"/><path d="M0 -95 Q-4 -75 0 -55 Q4 -75 0 -95Z" fill="#fff" opacity="0.13"/></g><g transform="rotate(334.2857142857143)"><ellipse cx="0" cy="-60" rx="22" ry="42" fill="url(#pp)" stroke="#2f1654" stroke-width="0.6" opacity="0.95"/><path d="M0 -95 Q-4 -75 0 -55 Q4 -75 0 -95Z" fill="#fff" opacity="0.13"/></g><g transform="rotate(18.0)"><ellipse cx="0" cy="-38" rx="16" ry="28" fill="#5b2c87" stroke="#2f1654" stroke-width="0.4" opacity="0.95"/></g><g transform="rotate(54.0)"><ellipse cx="0" cy="-38" rx="16" ry="28" fill="#5b2c87" stroke="#2f1654" stroke-width="0.4" opacity="0.95"/></g><g transform="rotate(90.0)"><ellipse cx="0" cy="-38" rx="16" ry="28" fill="#5b2c87" stroke="#2f1654" stroke-width="0.4" opacity="0.95"/></g><g transform="rotate(126.0)"><ellipse cx="0" cy="-38" rx="16" ry="28" fill="#5b2c87" stroke="#2f1654" stroke-width="0.4" opacity="0.95"/></g><g transform="rotate(162.0)"><ellipse cx="0" cy="-38" rx="16" ry="28" fill="#5b2c87" stroke="#2f1654" stroke-width="0.4" opacity="0.95"/></g><g transform="rotate(198.0)"><ellipse cx="0" cy="-38" rx="16" ry="28" fill="#5b2c87" stroke="#2f1654" stroke-width="0.4" opacity="0.95"/></g><g transform="rotate(234.0)"><ellipse cx="0" cy="-38" rx="16" ry="28" fill="#5b2c87" stroke="#2f1654" stroke-width="0.4" opacity="0.95"/></g><g transform="rotate(270.0)"><ellipse cx="0" cy="-38" rx="16" ry="28" fill="#5b2c87" stroke="#2f1654" stroke-width="0.4" opacity="0.95"/></g><g transform="rotate(306.0)"><ellipse cx="0" cy="-38" rx="16" ry="28" fill="#5b2c87" stroke="#2f1654" stroke-width="0.4" opacity="0.95"/></g><g transform="rotate(342.0)"><ellipse cx="0" cy="-38" rx="16" ry="28" fill="#5b2c87" stroke="#2f1654" stroke-width="0.4" opacity="0.95"/></g><g transform="rotate(22.0)"><ellipse cx="0" cy="-20" rx="11" ry="18" fill="#7e3aa8"/></g><g transform="rotate(67.0)"><ellipse cx="0" cy="-20" rx="11" ry="18" fill="#7e3aa8"/></g><g transform="rotate(112.0)"><ellipse cx="0" cy="-20" rx="11" ry="18" fill="#7e3aa8"/></g><g transform="rotate(157.0)"><ellipse cx="0" cy="-20" rx="11" ry="18" fill="#7e3aa8"/></g><g transform="rotate(202.0)"><ellipse cx="0" cy="-20" rx="11" ry="18" fill="#7e3aa8"/></g><g transform="rotate(247.0)"><ellipse cx="0" cy="-20" rx="11" ry="18" fill="#7e3aa8"/></g><g transform="rotate(292.0)"><ellipse cx="0" cy="-20" rx="11" ry="18" fill="#7e3aa8"/></g><g transform="rotate(337.0)"><ellipse cx="0" cy="-20" rx="11" ry="18" fill="#7e3aa8"/></g><circle r="14" fill="url(#pc)"/><circle cx="8.0" cy="0.0" r="1.1" fill="#e8d4ff"/><circle cx="7.5" cy="2.7" r="1.1" fill="#e8d4ff"/><circle cx="6.1" cy="5.1" r="1.1" fill="#e8d4ff"/><circle cx="4.0" cy="6.9" r="1.1" fill="#e8d4ff"/><circle cx="1.4" cy="7.9" r="1.1" fill="#e8d4ff"/><circle cx="-1.4" cy="7.9" r="1.1" fill="#e8d4ff"/><circle cx="-4.0" cy="6.9" r="1.1" fill="#e8d4ff"/><circle cx="-6.1" cy="5.1" r="1.1" fill="#e8d4ff"/><circle cx="-7.5" cy="2.7" r="1.1" fill="#e8d4ff"/><circle cx="-8.0" cy="0.0" r="1.1" fill="#e8d4ff"/><circle cx="-7.5" cy="-2.7" r="1.1" fill="#e8d4ff"/><circle cx="-6.1" cy="-5.1" r="1.1" fill="#e8d4ff"/><circle cx="-4.0" cy="-6.9" r="1.1" fill="#e8d4ff"/><circle cx="-1.4" cy="-7.9" r="1.1" fill="#e8d4ff"/><circle cx="1.4" cy="-7.9" r="1.1" fill="#e8d4ff"/><circle cx="4.0" cy="-6.9" r="1.1" fill="#e8d4ff"/><circle cx="6.1" cy="-5.1" r="1.1" fill="#e8d4ff"/><circle cx="7.5" cy="-2.7" r="1.1" fill="#e8d4ff"/></g></svg>