<svg xmlns="http://www.w3.org/2000/svg" viewBox="-100 -100 200 200">
<defs>
  <radialGradient id="petal" cx="0" cy="-30" r="50">
    <stop offset="0%" stop-color="#ffb766"/>
    <stop offset="60%" stop-color="#ec8a2b"/>
    <stop offset="100%" stop-color="#a8521c"/>
  </radialGradient>
  <radialGradient id="center" cx="0" cy="0" r="20">
    <stop offset="0%" stop-color="#7a3a08"/>
    <stop offset="100%" stop-color="#3e1d04"/>
  </radialGradient>
  <filter id="soft" x="-30%" y="-30%" width="160%" height="160%">
    <feGaussianBlur stdDeviation="0.7"/>
  </filter>
</defs>
<g filter="url(#soft)">
  <!-- 16 outer petals -->
  <g><g transform="rotate(0.0)"><ellipse cx="0" cy="-58" rx="20" ry="40" fill="url(#petal)" stroke="#7a3a08" stroke-width="0.8" opacity="0.95"/><path d="M0 -90 L-6 -56 L0 -88 L6 -56 Z" fill="#fff" opacity="0.18"/></g><g transform="rotate(22.5)"><ellipse cx="0" cy="-58" rx="20" ry="40" fill="url(#petal)" stroke="#7a3a08" stroke-width="0.8" opacity="0.95"/><path d="M0 -90 L-6 -56 L0 -88 L6 -56 Z" fill="#fff" opacity="0.18"/></g><g transform="rotate(45.0)"><ellipse cx="0" cy="-58" rx="20" ry="40" fill="url(#petal)" stroke="#7a3a08" stroke-width="0.8" opacity="0.95"/><path d="M0 -90 L-6 -56 L0 -88 L6 -56 Z" fill="#fff" opacity="0.18"/></g><g transform="rotate(67.5)"><ellipse cx="0" cy="-58" rx="20" ry="40" fill="url(#petal)" stroke="#7a3a08" stroke-width="0.8" opacity="0.95"/><path d="M0 -90 L-6 -56 L0 -88 L6 -56 Z" fill="#fff" opacity="0.18"/></g><g transform="rotate(90.0)"><ellipse cx="0" cy="-58" rx="20" ry="40" fill="url(#petal)" stroke="#7a3a08" stroke-width="0.8" opacity="0.95"/><path d="M0 -90 L-6 -56 L0 -88 L6 -56 Z" fill="#fff" opacity="0.18"/></g><g transform="rotate(112.5)"><ellipse cx="0" cy="-58" rx="20" ry="40" fill="url(#petal)" stroke="#7a3a08" stroke-width="0.8" opacity="0.95"/><path d="M0 -90 L-6 -56 L0 -88 L6 -56 Z" fill="#fff" opacity="0.18"/></g><g transform="rotate(135.0)"><ellipse cx="0" cy="-58" rx="20" ry="40" fill="url(#petal)" stroke="#7a3a08" stroke-width="0.8" opacity="0.95"/><path d="M0 -90 L-6 -56 L0 -88 L6 -56 Z" fill="#fff" opacity="0.18"/></g><g transform="rotate(157.5)"><ellipse cx="0" cy="-58" rx="20" ry="40" fill="url(#petal)" stroke="#7a3a08" stroke-width="0.8" opacity="0.95"/><path d="M0 -90 L-6 -56 L0 -88 L6 -56 Z" fill="#fff" opacity="0.18"/></g><g transform="rotate(180.0)"><ellipse cx="0" cy="-58" rx="20" ry="40" fill="url(#petal)" stroke="#7a3a08" stroke-width="0.8" opacity="0.95"/><path d="M0 -90 L-6 -56 L0 -88 L6 -56 Z" fill="#fff" opacity="0.18"/></g><g transform="rotate(202.5)"><ellipse cx="0" cy="-58" rx="20" ry="40" fill="url(#petal)" stroke="#7a3a08" stroke-width="0.8" opacity="0.95"/><path d="M0 -90 L-6 -56 L0 -88 L6 -56 Z" fill="#fff" opacity="0.18"/></g><g transform="rotate(225.0)"><ellipse cx="0" cy="-58" rx="20" ry="40" fill="url(#petal)" stroke="#7a3a08" stroke-width="0.8" opacity="0.95"/><path d="M0 -90 L-6 -56 L0 -88 L6 -56 Z" fill="#fff" opacity="0.18"/></g><g transform="rotate(247.5)"><ellipse cx="0" cy="-58" rx="20" ry="40" fill="url(#petal)" stroke="#7a3a08" stroke-width="0.8" opacity="0.95"/><path d="M0 -90 L-6 -56 L0 -88 L6 -56 Z" fill="#fff" opacity="0.18"/></g><g transform="rotate(270.0)"><ellipse cx="0" cy="-58" rx="20" ry="40" fill="url(#petal)" stroke="#7a3a08" stroke-width="0.8" opacity="0.95"/><path d="M0 -90 L-6 -56 L0 -88 L6 -56 Z" fill="#fff" opacity="0.18"/></g><g transform="rotate(292.5)"><ellipse cx="0" cy="-58" rx="20" ry="40" fill="url(#petal)" stroke="#7a3a08" stroke-width="0.8" opacity="0.95"/><path d="M0 -90 L-6 -56 L0 -88 L6 -56 Z" fill="#fff" opacity="0.18"/></g><g transform="rotate(315.0)"><ellipse cx="0" cy="-58" rx="20" ry="40" fill="url(#petal)" stroke="#7a3a08" stroke-width="0.8" opacity="0.95"/><path d="M0 -90 L-6 -56 L0 -88 L6 -56 Z" fill="#fff" opacity="0.18"/></g><g transform="rotate(337.5)"><ellipse cx="0" cy="-58" rx="20" ry="40" fill="url(#petal)" stroke="#7a3a08" stroke-width="0.8" opacity="0.95"/><path d="M0 -90 L-6 -56 L0 -88 L6 -56 Z" fill="#fff" opacity="0.18"/></g><g transform="rotate(15.0)"><ellipse cx="0" cy="-38" rx="14" ry="28" fill="#ec8a2b" stroke="#7a3a08" stroke-width="0.5" opacity="0.95"/></g><g transform="rotate(45.0)"><ellipse cx="0" cy="-38" rx="14" ry="28" fill="#ec8a2b" stroke="#7a3a08" stroke-width="0.5" opacity="0.95"/></g><g transform="rotate(75.0)"><ellipse cx="0" cy="-38" rx="14" ry="28" fill="#ec8a2b" stroke="#7a3a08" stroke-width="0.5" opacity="0.95"/></g><g transform="rotate(105.0)"><ellipse cx="0" cy="-38" rx="14" ry="28" fill="#ec8a2b" stroke="#7a3a08" stroke-width="0.5" opacity="0.95"/></g><g transform="rotate(135.0)"><ellipse cx="0" cy="-38" rx="14" ry="28" fill="#ec8a2b" stroke="#7a3a08" stroke-width="0.5" opacity="0.95"/></g><g transform="rotate(165.0)"><ellipse cx="0" cy="-38" rx="14" ry="28" fill="#ec8a2b" stroke="#7a3a08" stroke-width="0.5" opacity="0.95"/></g><g transform="rotate(195.0)"><ellipse cx="0" cy="-38" rx="14" ry="28" fill="#ec8a2b" stroke="#7a3a08" stroke-width="0.5" opacity="0.95"/></g><g transform="rotate(225.0)"><ellipse cx="0" cy="-38" rx="14" ry="28" fill="#ec8a2b" stroke="#7a3a08" stroke-width="0.5" opacity="0.95"/></g><g transform="rotate(255.0)"><ellipse cx="0" cy="-38" rx="14" ry="28" fill="#ec8a2b" stroke="#7a3a08" stroke-width="0.5" opacity="0.95"/></g><g transform="rotate(285.0)"><ellipse cx="0" cy="-38" rx="14" ry="28" fill="#ec8a2b" stroke="#7a3a08" stroke-width="0.5" opacity="0.95"/></g><g transform="rotate(315.0)"><ellipse cx="0" cy="-38" rx="14" ry="28" fill="#ec8a2b" stroke="#7a3a08" stroke-width="0.5" opacity="0.95"/></g><g transform="rotate(345.0)"><ellipse cx="0" cy="-38" rx="14" ry="28" fill="#ec8a2b" stroke="#7a3a08" stroke-width="0.5" opacity="0.95"/></g><g transform="rotate(22.0)"><ellipse cx="0" cy="-22" rx="10" ry="18" fill="#d8761e" stroke="#7a3a08" stroke-width="0.4"/></g><g transform="rotate(67.0)"><ellipse cx="0" cy="-22" rx="10" ry="18" fill="#d8761e" stroke="#7a3a08" stroke-width="0.4"/></g><g transform="rotate(112.0)"><ellipse cx="0" cy="-22" rx="10" ry="18" fill="#d8761e" stroke="#7a3a08" stroke-width="0.4"/></g><g transform="rotate(157.0)"><ellipse cx="0" cy="-22" rx="10" ry="18" fill="#d8761e" stroke="#7a3a08" stroke-width="0.4"/></g><g transform="rotate(202.0)"><ellipse cx="0" cy="-22" rx="10" ry="18" fill="#d8761e" stroke="#7a3a08" stroke-width="0.4"/></g><g transform="rotate(247.0)"><ellipse cx="0" cy="-22" rx="10" ry="18" fill="#d8761e" stroke="#7a3a08" stroke-width="0.4"/></g><g transform="rotate(292.0)"><ellipse cx="0" cy="-22" rx="10" ry="18" fill="#d8761e" stroke="#7a3a08" stroke-width="0.4"/></g><g transform="rotate(337.0)"><ellipse cx="0" cy="-22" rx="10" ry="18" fill="#d8761e" stroke="#7a3a08" stroke-width="0.4"/></g></g>
  <circle r="14" fill="url(#center)"/>
  <g fill="#ffd47a"><circle cx="8.0" cy="0.0" r="1.2"/><circle cx="7.6" cy="2.5" r="1.2"/><circle cx="6.5" cy="4.7" r="1.2"/><circle cx="4.7" cy="6.5" r="1.2"/><circle cx="2.5" cy="7.6" r="1.2"/><circle cx="0.0" cy="8.0" r="1.2"/><circle cx="-2.5" cy="7.6" r="1.2"/><circle cx="-4.7" cy="6.5" r="1.2"/><circle cx="-6.5" cy="4.7" r="1.2"/><circle cx="-7.6" cy="2.5" r="1.2"/><circle cx="-8.0" cy="0.0" r="1.2"/><circle cx="-7.6" cy="-2.5" r="1.2"/><circle cx="-6.5" cy="-4.7" r="1.2"/><circle cx="-4.7" cy="-6.5" r="1.2"/><circle cx="-2.5" cy="-7.6" r="1.2"/><circle cx="-0.0" cy="-8.0" r="1.2"/><circle cx="2.5" cy="-7.6" r="1.2"/><circle cx="4.7" cy="-6.5" r="1.2"/><circle cx="6.5" cy="-4.7" r="1.2"/><circle cx="7.6" cy="-2.5" r="1.2"/></g></g></svg>