<svg xmlns="http://www.w3.org/2000/svg" viewBox="-100 -100 200 200">
<defs>
  <radialGradient id="gp" cx="0" cy="-30" r="50">
    <stop offset="0%" stop-color="#86d68d"/>
    <stop offset="60%" stop-color="#3a8a45"/>
    <stop offset="100%" stop-color="#1f4a23"/>
  </radialGradient>
  <radialGradient id="gc" cx="0" cy="0" r="20">
    <stop offset="0%" stop-color="#fff5c4"/>
    <stop offset="100%" stop-color="#a86a13"/>
  </radialGradient>
  <filter id="gsf"><feGaussianBlur stdDeviation="0.7"/></filter>
</defs>
<g filter="url(#gsf)"><g transform="rotate(0.0)"><ellipse cx="0" cy="-58" rx="20" ry="40" fill="url(#gp)" stroke="#1f4a23" stroke-width="0.8" opacity="0.95"/><path d="M0 -90 L-6 -56 L0 -88 L6 -56 Z" fill="#fff" opacity="0.18"/></g><g transform="rotate(22.5)"><ellipse cx="0" cy="-58" rx="20" ry="40" fill="url(#gp)" stroke="#1f4a23" stroke-width="0.8" opacity="0.95"/><path d="M0 -90 L-6 -56 L0 -88 L6 -56 Z" fill="#fff" opacity="0.18"/></g><g transform="rotate(45.0)"><ellipse cx="0" cy="-58" rx="20" ry="40" fill="url(#gp)" stroke="#1f4a23" stroke-width="0.8" opacity="0.95"/><path d="M0 -90 L-6 -56 L0 -88 L6 -56 Z" fill="#fff" opacity="0.18"/></g><g transform="rotate(67.5)"><ellipse cx="0" cy="-58" rx="20" ry="40" fill="url(#gp)" stroke="#1f4a23" stroke-width="0.8" opacity="0.95"/><path d="M0 -90 L-6 -56 L0 -88 L6 -56 Z" fill="#fff" opacity="0.18"/></g><g transform="rotate(90.0)"><ellipse cx="0" cy="-58" rx="20" ry="40" fill="url(#gp)" stroke="#1f4a23" stroke-width="0.8" opacity="0.95"/><path d="M0 -90 L-6 -56 L0 -88 L6 -56 Z" fill="#fff" opacity="0.18"/></g><g transform="rotate(112.5)"><ellipse cx="0" cy="-58" rx="20" ry="40" fill="url(#gp)" stroke="#1f4a23" stroke-width="0.8" opacity="0.95"/><path d="M0 -90 L-6 -56 L0 -88 L6 -56 Z" fill="#fff" opacity="0.18"/></g><g transform="rotate(135.0)"><ellipse cx="0" cy="-58" rx="20" ry="40" fill="url(#gp)" stroke="#1f4a23" stroke-width="0.8" opacity="0.95"/><path d="M0 -90 L-6 -56 L0 -88 L6 -56 Z" fill="#fff" opacity="0.18"/></g><g transform="rotate(157.5)"><ellipse cx="0" cy="-58" rx="20" ry="40" fill="url(#gp)" stroke="#1f4a23" stroke-width="0.8" opacity="0.95"/><path d="M0 -90 L-6 -56 L0 -88 L6 -56 Z" fill="#fff" opacity="0.18"/></g><g transform="rotate(180.0)"><ellipse cx="0" cy="-58" rx="20" ry="40" fill="url(#gp)" stroke="#1f4a23" stroke-width="0.8" opacity="0.95"/><path d="M0 -90 L-6 -56 L0 -88 L6 -56 Z" fill="#fff" opacity="0.18"/></g><g transform="rotate(202.5)"><ellipse cx="0" cy="-58" rx="20" ry="40" fill="url(#gp)" stroke="#1f4a23" stroke-width="0.8" opacity="0.95"/><path d="M0 -90 L-6 -56 L0 -88 L6 -56 Z" fill="#fff" opacity="0.18"/></g><g transform="rotate(225.0)"><ellipse cx="0" cy="-58" rx="20" ry="40" fill="url(#gp)" stroke="#1f4a23" stroke-width="0.8" opacity="0.95"/><path d="M0 -90 L-6 -56 L0 -88 L6 -56 Z" fill="#fff" opacity="0.18"/></g><g transform="rotate(247.5)"><ellipse cx="0" cy="-58" rx="20" ry="40" fill="url(#gp)" stroke="#1f4a23" stroke-width="0.8" opacity="0.95"/><path d="M0 -90 L-6 -56 L0 -88 L6 -56 Z" fill="#fff" opacity="0.18"/></g><g transform="rotate(270.0)"><ellipse cx="0" cy="-58" rx="20" ry="40" fill="url(#gp)" stroke="#1f4a23" stroke-width="0.8" opacity="0.95"/><path d="M0 -90 L-6 -56 L0 -88 L6 -56 Z" fill="#fff" opacity="0.18"/></g><g transform="rotate(292.5)"><ellipse cx="0" cy="-58" rx="20" ry="40" fill="url(#gp)" stroke="#1f4a23" stroke-width="0.8" opacity="0.95"/><path d="M0 -90 L-6 -56 L0 -88 L6 -56 Z" fill="#fff" opacity="0.18"/></g><g transform="rotate(315.0)"><ellipse cx="0" cy="-58" rx="20" ry="40" fill="url(#gp)" stroke="#1f4a23" stroke-width="0.8" opacity="0.95"/><path d="M0 -90 L-6 -56 L0 -88 L6 -56 Z" fill="#fff" opacity="0.18"/></g><g transform="rotate(337.5)"><ellipse cx="0" cy="-58" rx="20" ry="40" fill="url(#gp)" stroke="#1f4a23" stroke-width="0.8" opacity="0.95"/><path d="M0 -90 L-6 -56 L0 -88 L6 -56 Z" fill="#fff" opacity="0.18"/></g><g transform="rotate(15.0)"><ellipse cx="0" cy="-38" rx="14" ry="28" fill="#3a8a45" stroke="#1f4a23" stroke-width="0.5" opacity="0.95"/></g><g transform="rotate(45.0)"><ellipse cx="0" cy="-38" rx="14" ry="28" fill="#3a8a45" stroke="#1f4a23" stroke-width="0.5" opacity="0.95"/></g><g transform="rotate(75.0)"><ellipse cx="0" cy="-38" rx="14" ry="28" fill="#3a8a45" stroke="#1f4a23" stroke-width="0.5" opacity="0.95"/></g><g transform="rotate(105.0)"><ellipse cx="0" cy="-38" rx="14" ry="28" fill="#3a8a45" stroke="#1f4a23" stroke-width="0.5" opacity="0.95"/></g><g transform="rotate(135.0)"><ellipse cx="0" cy="-38" rx="14" ry="28" fill="#3a8a45" stroke="#1f4a23" stroke-width="0.5" opacity="0.95"/></g><g transform="rotate(165.0)"><ellipse cx="0" cy="-38" rx="14" ry="28" fill="#3a8a45" stroke="#1f4a23" stroke-width="0.5" opacity="0.95"/></g><g transform="rotate(195.0)"><ellipse cx="0" cy="-38" rx="14" ry="28" fill="#3a8a45" stroke="#1f4a23" stroke-width="0.5" opacity="0.95"/></g><g transform="rotate(225.0)"><ellipse cx="0" cy="-38" rx="14" ry="28" fill="#3a8a45" stroke="#1f4a23" stroke-width="0.5" opacity="0.95"/></g><g transform="rotate(255.0)"><ellipse cx="0" cy="-38" rx="14" ry="28" fill="#3a8a45" stroke="#1f4a23" stroke-width="0.5" opacity="0.95"/></g><g transform="rotate(285.0)"><ellipse cx="0" cy="-38" rx="14" ry="28" fill="#3a8a45" stroke="#1f4a23" stroke-width="0.5" opacity="0.95"/></g><g transform="rotate(315.0)"><ellipse cx="0" cy="-38" rx="14" ry="28" fill="#3a8a45" stroke="#1f4a23" stroke-width="0.5" opacity="0.95"/></g><g transform="rotate(345.0)"><ellipse cx="0" cy="-38" rx="14" ry="28" fill="#3a8a45" stroke="#1f4a23" stroke-width="0.5" opacity="0.95"/></g><g transform="rotate(22.0)"><ellipse cx="0" cy="-22" rx="10" ry="18" fill="#5fa869" stroke="#1f4a23" stroke-width="0.4"/></g><g transform="rotate(67.0)"><ellipse cx="0" cy="-22" rx="10" ry="18" fill="#5fa869" stroke="#1f4a23" stroke-width="0.4"/></g><g transform="rotate(112.0)"><ellipse cx="0" cy="-22" rx="10" ry="18" fill="#5fa869" stroke="#1f4a23" stroke-width="0.4"/></g><g transform="rotate(157.0)"><ellipse cx="0" cy="-22" rx="10" ry="18" fill="#5fa869" stroke="#1f4a23" stroke-width="0.4"/></g><g transform="rotate(202.0)"><ellipse cx="0" cy="-22" rx="10" ry="18" fill="#5fa869" stroke="#1f4a23" stroke-width="0.4"/></g><g transform="rotate(247.0)"><ellipse cx="0" cy="-22" rx="10" ry="18" fill="#5fa869" stroke="#1f4a23" stroke-width="0.4"/></g><g transform="rotate(292.0)"><ellipse cx="0" cy="-22" rx="10" ry="18" fill="#5fa869" stroke="#1f4a23" stroke-width="0.4"/></g><g transform="rotate(337.0)"><ellipse cx="0" cy="-22" rx="10" ry="18" fill="#5fa869" stroke="#1f4a23" stroke-width="0.4"/></g><circle r="14" fill="url(#gc)"/><circle cx="8.0" cy="0.0" r="1.2" fill="#d8a44a"/><circle cx="7.6" cy="2.5" r="1.2" fill="#d8a44a"/><circle cx="6.5" cy="4.7" r="1.2" fill="#d8a44a"/><circle cx="4.7" cy="6.5" r="1.2" fill="#d8a44a"/><circle cx="2.5" cy="7.6" r="1.2" fill="#d8a44a"/><circle cx="0.0" cy="8.0" r="1.2" fill="#d8a44a"/><circle cx="-2.5" cy="7.6" r="1.2" fill="#d8a44a"/><circle cx="-4.7" cy="6.5" r="1.2" fill="#d8a44a"/><circle cx="-6.5" cy="4.7" r="1.2" fill="#d8a44a"/><circle cx="-7.6" cy="2.5" r="1.2" fill="#d8a44a"/><circle cx="-8.0" cy="0.0" r="1.2" fill="#d8a44a"/><circle cx="-7.6" cy="-2.5" r="1.2" fill="#d8a44a"/><circle cx="-6.5" cy="-4.7" r="1.2" fill="#d8a44a"/><circle cx="-4.7" cy="-6.5" r="1.2" fill="#d8a44a"/><circle cx="-2.5" cy="-7.6" r="1.2" fill="#d8a44a"/><circle cx="-0.0" cy="-8.0" r="1.2" fill="#d8a44a"/><circle cx="2.5" cy="-7.6" r="1.2" fill="#d8a44a"/><circle cx="4.7" cy="-6.5" r="1.2" fill="#d8a44a"/><circle cx="6.5" cy="-4.7" r="1.2" fill="#d8a44a"/><circle cx="7.6" cy="-2.5" r="1.2" fill="#d8a44a"/></g></svg>